<svg xmlns="http://www.w3.org/2000/svg" viewBox="0 0 31 53" role="img" aria-label="StegoVault">
  <rect x="0" y="0" width="9" height="9" fill="#f1f0ee"/>
  <rect x="11" y="0" width="9" height="9" fill="#f1f0ee"/>
  <rect x="22" y="0" width="9" height="9" fill="#f1f0ee"/>
  <rect x="0" y="11" width="9" height="9" fill="#f1f0ee"/>
  <rect x="11" y="11" width="9" height="9" fill="#2a2828"/>
  <rect x="22" y="11" width="9" height="9" fill="#2a2828"/>
  <rect x="0" y="22" width="9" height="9" fill="#f1f0ee"/>
  <rect x="11" y="22" width="9" height="9" fill="#b3121b"/>
  <rect x="22" y="22" width="9" height="9" fill="#f1f0ee"/>
  <rect x="0" y="33" width="9" height="9" fill="#2a2828"/>
  <rect x="11" y="33" width="9" height="9" fill="#2a2828"/>
  <rect x="22" y="33" width="9" height="9" fill="#f1f0ee"/>
  <rect x="0" y="44" width="9" height="9" fill="#f1f0ee"/>
  <rect x="11" y="44" width="9" height="9" fill="#f1f0ee"/>
  <rect x="22" y="44" width="9" height="9" fill="#f1f0ee"/>
</svg>
